<svg width="22" height="20" viewBox="0 0 22 20" fill="none" xmlns="http://www.w3.org/2000/svg">
<path d="M10.8348 6.67414L13.9191 9.68028L13.9338 9.52281C13.9338 7.94339 12.6168 6.65983 10.9963 6.65983L10.8348 6.67414Z" fill="black"/>
<path d="M10.9964 4.7512C13.6988 4.7512 15.8921 6.88892 15.8921 9.52286C15.8921 10.1384 15.7648 10.7253 15.5445 11.2645L18.4085 14.0559C19.887 12.8535 21.0522 11.2979 21.7719 9.52286C20.0731 5.33338 15.897 2.3654 10.9964 2.3654C9.62561 2.3654 8.31358 2.60397 7.09454 3.03341L9.2095 5.08998C9.76266 4.88004 10.3648 4.7512 10.9964 4.7512Z" fill="black"/>
<path d="M1.2049 2.15064L3.43735 4.32651L3.88288 4.76074C2.26729 5.99183 0.989502 7.62852 0.225769 9.52283C1.91971 13.7123 6.10064 16.6803 10.9964 16.6803C12.5141 16.6803 13.9632 16.394 15.29 15.8739L15.7061 16.2795L18.5603 19.0661L19.8087 17.8541L2.45331 0.933872L1.2049 2.15064ZM6.6196 7.42332L8.13238 8.89776C8.08832 9.10295 8.05895 9.30811 8.05895 9.52283C8.05895 11.1023 9.37588 12.3858 10.9964 12.3858C11.2167 12.3858 11.4272 12.3572 11.6328 12.3142L13.1456 13.7887C12.4945 14.1036 11.7699 14.2945 10.9964 14.2945C8.29394 14.2945 6.10064 12.1568 6.10064 9.52283C6.10064 8.76892 6.29649 8.06271 6.6196 7.42332Z" fill="black"/>
</svg>
